<svg width="205" height="80" viewBox="0 0 205 80" fill="none" xmlns="http://www.w3.org/2000/svg">
<rect x="2.41211" y="44.2344" width="46.7745" height="46.7745" rx="3" transform="rotate(-45 2.41211 44.2344)" fill="#FFC436"/>
<rect x="11.1036" y="44.5664" width="34.4019" height="34.4019" rx="2.5" transform="rotate(-45 11.1036 44.5664)" fill="#FFC436" stroke="white"/>
<path d="M51.6293 41.1669L28.9215 54.2772L10.7452 22.795L18.8642 18.1075L33.5249 43.5005L48.1137 35.0776L51.6293 41.1669Z" fill="white"/>
<path d="M71.6994 41.9648V17.4648H82.0244C84.6377 17.4648 86.9361 17.9782 88.9194 19.0048C90.9261 20.0315 92.4777 21.4665 93.5744 23.3098C94.6944 25.1532 95.2544 27.2882 95.2544 29.7148C95.2544 32.1415 94.6944 34.2765 93.5744 36.1198C92.4777 37.9632 90.9261 39.3982 88.9194 40.4248C86.9361 41.4515 84.6377 41.9648 82.0244 41.9648H71.6994ZM75.1994 38.9198H81.8144C83.8444 38.9198 85.5944 38.5348 87.0644 37.7648C88.5577 36.9948 89.7127 35.9215 90.5294 34.5448C91.3461 33.1448 91.7544 31.5348 91.7544 29.7148C91.7544 27.8715 91.3461 26.2615 90.5294 24.8848C89.7127 23.5082 88.5577 22.4348 87.0644 21.6648C85.5944 20.8948 83.8444 20.5098 81.8144 20.5098H75.1994V38.9198ZM100.125 41.9648V23.4148H103.345V28.4548L103.03 27.1948C103.544 25.9115 104.407 24.9315 105.62 24.2548C106.834 23.5782 108.327 23.2398 110.1 23.2398V26.4948C109.96 26.4715 109.82 26.4598 109.68 26.4598C109.564 26.4598 109.447 26.4598 109.33 26.4598C107.534 26.4598 106.11 26.9965 105.06 28.0698C104.01 29.1432 103.485 30.6948 103.485 32.7248V41.9648H100.125ZM114.242 41.9648V23.4148H117.602V41.9648H114.242ZM115.922 19.8448C115.268 19.8448 114.72 19.6348 114.277 19.2148C113.857 18.7948 113.647 18.2815 113.647 17.6748C113.647 17.0448 113.857 16.5198 114.277 16.0998C114.72 15.6798 115.268 15.4698 115.922 15.4698C116.575 15.4698 117.112 15.6798 117.532 16.0998C117.975 16.4965 118.197 16.9982 118.197 17.6048C118.197 18.2348 117.987 18.7715 117.567 19.2148C117.147 19.6348 116.598 19.8448 115.922 19.8448ZM135.462 42.2448C133.595 42.2448 131.869 41.9415 130.282 41.3348C128.719 40.7048 127.354 39.8298 126.187 38.7098C125.044 37.5665 124.145 36.2365 123.492 34.7198C122.839 33.2032 122.512 31.5348 122.512 29.7148C122.512 27.8948 122.839 26.2265 123.492 24.7098C124.145 23.1932 125.055 21.8748 126.222 20.7548C127.389 19.6115 128.754 18.7365 130.317 18.1298C131.904 17.4998 133.63 17.1848 135.497 17.1848C137.387 17.1848 139.125 17.5115 140.712 18.1648C142.322 18.7948 143.687 19.7398 144.807 20.9998L142.532 23.2048C141.599 22.2248 140.549 21.5015 139.382 21.0348C138.215 20.5448 136.967 20.2998 135.637 20.2998C134.26 20.2998 132.977 20.5332 131.787 20.9998C130.62 21.4665 129.605 22.1198 128.742 22.9598C127.879 23.7998 127.202 24.8032 126.712 25.9698C126.245 27.1132 126.012 28.3615 126.012 29.7148C126.012 31.0682 126.245 32.3282 126.712 33.4948C127.202 34.6382 127.879 35.6298 128.742 36.4698C129.605 37.3098 130.62 37.9632 131.787 38.4298C132.977 38.8965 134.26 39.1298 135.637 39.1298C136.967 39.1298 138.215 38.8965 139.382 38.4298C140.549 37.9398 141.599 37.1932 142.532 36.1898L144.807 38.3948C143.687 39.6548 142.322 40.6115 140.712 41.2648C139.125 41.9182 137.375 42.2448 135.462 42.2448ZM156.534 42.1748C154.947 42.1748 153.547 41.8832 152.334 41.2998C151.144 40.7165 150.211 39.8298 149.534 38.6398C148.881 37.4265 148.554 35.9098 148.554 34.0898V23.4148H151.914V33.7048C151.914 35.5248 152.346 36.8898 153.209 37.7998C154.096 38.7098 155.332 39.1648 156.919 39.1648C158.086 39.1648 159.101 38.9315 159.964 38.4648C160.827 37.9748 161.492 37.2748 161.959 36.3648C162.426 35.4315 162.659 34.3115 162.659 33.0048V23.4148H166.019V41.9648H162.834V36.9598L163.359 38.2898C162.752 39.5265 161.842 40.4832 160.629 41.1598C159.416 41.8365 158.051 42.1748 156.534 42.1748ZM182.25 42.1748C180.664 42.1748 179.229 41.8248 177.945 41.1248C176.685 40.4015 175.682 39.3398 174.935 37.9398C174.212 36.5398 173.85 34.7898 173.85 32.6898C173.85 30.5898 174.224 28.8398 174.97 27.4398C175.74 26.0398 176.755 24.9898 178.015 24.2898C179.299 23.5898 180.71 23.2398 182.25 23.2398C184.07 23.2398 185.68 23.6365 187.08 24.4298C188.48 25.2232 189.589 26.3315 190.405 27.7548C191.222 29.1548 191.63 30.7998 191.63 32.6898C191.63 34.5798 191.222 36.2365 190.405 37.6598C189.589 39.0832 188.48 40.1915 187.08 40.9848C185.68 41.7782 184.07 42.1748 182.25 42.1748ZM172.415 41.9648V15.9948H175.775V28.3498L175.425 32.6548L175.635 36.9598V41.9648H172.415ZM181.97 39.2348C183.16 39.2348 184.222 38.9665 185.155 38.4298C186.112 37.8932 186.859 37.1348 187.395 36.1548C187.955 35.1515 188.235 33.9965 188.235 32.6898C188.235 31.3598 187.955 30.2165 187.395 29.2598C186.859 28.2798 186.112 27.5215 185.155 26.9848C184.222 26.4482 183.16 26.1798 181.97 26.1798C180.804 26.1798 179.742 26.4482 178.785 26.9848C177.852 27.5215 177.105 28.2798 176.545 29.2598C176.009 30.2165 175.74 31.3598 175.74 32.6898C175.74 33.9965 176.009 35.1515 176.545 36.1548C177.105 37.1348 177.852 37.8932 178.785 38.4298C179.742 38.9665 180.804 39.2348 181.97 39.2348Z" fill="white"/>
<path d="M75.5342 46.985L204.068 46.9844L187.534 65.7454H57.7148L75.5342 46.985Z" fill="white"/>
<path d="M87.6598 59.9844V53.6844H90.3148C90.9868 53.6844 91.5778 53.8164 92.0878 54.0804C92.6038 54.3444 93.0028 54.7134 93.2848 55.1874C93.5728 55.6614 93.7168 56.2104 93.7168 56.8344C93.7168 57.4584 93.5728 58.0074 93.2848 58.4814C93.0028 58.9554 92.6038 59.3244 92.0878 59.5884C91.5778 59.8524 90.9868 59.9844 90.3148 59.9844H87.6598ZM88.5598 59.2014H90.2608C90.7828 59.2014 91.2328 59.1024 91.6108 58.9044C91.9948 58.7064 92.2918 58.4304 92.5018 58.0764C92.7118 57.7164 92.8168 57.3024 92.8168 56.8344C92.8168 56.3604 92.7118 55.9464 92.5018 55.5924C92.2918 55.2384 91.9948 54.9624 91.6108 54.7644C91.2328 54.5664 90.7828 54.4674 90.2608 54.4674H88.5598V59.2014ZM95.0954 59.9844V53.6844H97.5524C98.1044 53.6844 98.5754 53.7714 98.9654 53.9454C99.3554 54.1194 99.6554 54.3714 99.8654 54.7014C100.075 55.0314 100.18 55.4244 100.18 55.8804C100.18 56.3364 100.075 56.7294 99.8654 57.0594C99.6554 57.3834 99.3554 57.6324 98.9654 57.8064C98.5754 57.9804 98.1044 58.0674 97.5524 58.0674H95.5904L95.9954 57.6534V59.9844H95.0954ZM99.3074 59.9844L97.7054 57.6984H98.6684L100.288 59.9844H99.3074ZM95.9954 57.7434L95.5904 57.3024H97.5254C98.1014 57.3024 98.5364 57.1794 98.8304 56.9334C99.1304 56.6814 99.2804 56.3304 99.2804 55.8804C99.2804 55.4304 99.1304 55.0824 98.8304 54.8364C98.5364 54.5904 98.1014 54.4674 97.5254 54.4674H95.5904L95.9954 54.0174V57.7434ZM101.634 59.9844V53.6844H102.534V59.9844H101.634ZM106.177 59.9844L103.405 53.6844H104.377L106.924 59.4984H106.366L108.931 53.6844H109.831L107.068 59.9844H106.177ZM110.634 59.9844V53.6844H111.534V59.9844H110.634ZM113.421 59.9844V53.6844H114.159L118.326 58.8594H117.939V53.6844H118.839V59.9844H118.101L113.934 54.8094H114.321V59.9844H113.421ZM123.568 60.0564C123.082 60.0564 122.635 59.9784 122.227 59.8224C121.819 59.6604 121.465 59.4354 121.165 59.1474C120.865 58.8534 120.631 58.5114 120.463 58.1214C120.295 57.7314 120.211 57.3024 120.211 56.8344C120.211 56.3664 120.295 55.9374 120.463 55.5474C120.631 55.1574 120.865 54.8184 121.165 54.5304C121.471 54.2364 121.828 54.0114 122.236 53.8554C122.644 53.6934 123.094 53.6124 123.586 53.6124C124.084 53.6124 124.54 53.6934 124.954 53.8554C125.368 54.0174 125.719 54.2604 126.007 54.5844L125.449 55.1424C125.191 54.8904 124.909 54.7074 124.603 54.5934C124.303 54.4734 123.976 54.4134 123.622 54.4134C123.262 54.4134 122.926 54.4734 122.614 54.5934C122.308 54.7134 122.041 54.8814 121.813 55.0974C121.591 55.3134 121.417 55.5714 121.291 55.8714C121.171 56.1654 121.111 56.4864 121.111 56.8344C121.111 57.1764 121.171 57.4974 121.291 57.7974C121.417 58.0914 121.591 58.3494 121.813 58.5714C122.041 58.7874 122.308 58.9554 122.614 59.0754C122.92 59.1954 123.253 59.2554 123.613 59.2554C123.949 59.2554 124.27 59.2044 124.576 59.1024C124.888 58.9944 125.176 58.8174 125.44 58.5714L125.953 59.2554C125.641 59.5194 125.275 59.7204 124.855 59.8584C124.441 59.9904 124.012 60.0564 123.568 60.0564ZM125.089 59.1384V56.7984H125.953V59.2554L125.089 59.1384ZM131.929 60.0564C131.449 60.0564 130.99 59.9844 130.552 59.8404C130.114 59.6904 129.769 59.4984 129.517 59.2644L129.85 58.5624C130.09 58.7724 130.396 58.9464 130.768 59.0844C131.14 59.2224 131.527 59.2914 131.929 59.2914C132.295 59.2914 132.592 59.2494 132.82 59.1654C133.048 59.0814 133.216 58.9674 133.324 58.8234C133.432 58.6734 133.486 58.5054 133.486 58.3194C133.486 58.1034 133.414 57.9294 133.27 57.7974C133.132 57.6654 132.949 57.5604 132.721 57.4824C132.499 57.3984 132.253 57.3264 131.983 57.2664C131.713 57.2064 131.44 57.1374 131.164 57.0594C130.894 56.9754 130.645 56.8704 130.417 56.7444C130.195 56.6184 130.015 56.4504 129.877 56.2404C129.739 56.0244 129.67 55.7484 129.67 55.4124C129.67 55.0884 129.754 54.7914 129.922 54.5214C130.096 54.2454 130.36 54.0264 130.714 53.8644C131.074 53.6964 131.53 53.6124 132.082 53.6124C132.448 53.6124 132.811 53.6604 133.171 53.7564C133.531 53.8524 133.843 53.9904 134.107 54.1704L133.81 54.8904C133.54 54.7104 133.255 54.5814 132.955 54.5034C132.655 54.4194 132.364 54.3774 132.082 54.3774C131.728 54.3774 131.437 54.4224 131.209 54.5124C130.981 54.6024 130.813 54.7224 130.705 54.8724C130.603 55.0224 130.552 55.1904 130.552 55.3764C130.552 55.5984 130.621 55.7754 130.759 55.9074C130.903 56.0394 131.086 56.1444 131.308 56.2224C131.536 56.3004 131.785 56.3724 132.055 56.4384C132.325 56.4984 132.595 56.5674 132.865 56.6454C133.141 56.7234 133.39 56.8254 133.612 56.9514C133.84 57.0774 134.023 57.2454 134.161 57.4554C134.299 57.6654 134.368 57.9354 134.368 58.2654C134.368 58.5834 134.281 58.8804 134.107 59.1564C133.933 59.4264 133.663 59.6454 133.297 59.8134C132.937 59.9754 132.481 60.0564 131.929 60.0564ZM138.5 60.0564C138.02 60.0564 137.576 59.9784 137.168 59.8224C136.766 59.6604 136.415 59.4354 136.115 59.1474C135.821 58.8534 135.59 58.5114 135.422 58.1214C135.254 57.7314 135.17 57.3024 135.17 56.8344C135.17 56.3664 135.254 55.9374 135.422 55.5474C135.59 55.1574 135.824 54.8184 136.124 54.5304C136.424 54.2364 136.775 54.0114 137.177 53.8554C137.585 53.6934 138.029 53.6124 138.509 53.6124C138.995 53.6124 139.442 53.6964 139.85 53.8644C140.264 54.0264 140.615 54.2694 140.903 54.5934L140.318 55.1604C140.078 54.9084 139.808 54.7224 139.508 54.6024C139.208 54.4764 138.887 54.4134 138.545 54.4134C138.191 54.4134 137.861 54.4734 137.555 54.5934C137.255 54.7134 136.994 54.8814 136.772 55.0974C136.55 55.3134 136.376 55.5714 136.25 55.8714C136.13 56.1654 136.07 56.4864 136.07 56.8344C136.07 57.1824 136.13 57.5064 136.25 57.8064C136.376 58.1004 136.55 58.3554 136.772 58.5714C136.994 58.7874 137.255 58.9554 137.555 59.0754C137.861 59.1954 138.191 59.2554 138.545 59.2554C138.887 59.2554 139.208 59.1954 139.508 59.0754C139.808 58.9494 140.078 58.7574 140.318 58.4994L140.903 59.0664C140.615 59.3904 140.264 59.6364 139.85 59.8044C139.442 59.9724 138.992 60.0564 138.5 60.0564ZM146.705 53.6844H147.605V59.9844H146.705V53.6844ZM143.087 59.9844H142.187V53.6844H143.087V59.9844ZM146.786 57.1764H142.997V56.3934H146.786V57.1764ZM152.335 60.0564C151.855 60.0564 151.408 59.9754 150.994 59.8134C150.586 59.6514 150.232 59.4264 149.932 59.1384C149.632 58.8444 149.398 58.5024 149.23 58.1124C149.062 57.7224 148.978 57.2964 148.978 56.8344C148.978 56.3724 149.062 55.9464 149.23 55.5564C149.398 55.1664 149.632 54.8274 149.932 54.5394C150.232 54.2454 150.586 54.0174 150.994 53.8554C151.402 53.6934 151.849 53.6124 152.335 53.6124C152.815 53.6124 153.256 53.6934 153.658 53.8554C154.066 54.0114 154.42 54.2364 154.72 54.5304C155.026 54.8184 155.26 55.1574 155.422 55.5474C155.59 55.9374 155.674 56.3664 155.674 56.8344C155.674 57.3024 155.59 57.7314 155.422 58.1214C155.26 58.5114 155.026 58.8534 154.72 59.1474C154.42 59.4354 154.066 59.6604 153.658 59.8224C153.256 59.9784 152.815 60.0564 152.335 60.0564ZM152.335 59.2554C152.683 59.2554 153.004 59.1954 153.298 59.0754C153.598 58.9554 153.856 58.7874 154.072 58.5714C154.294 58.3494 154.465 58.0914 154.585 57.7974C154.711 57.5034 154.774 57.1824 154.774 56.8344C154.774 56.4864 154.711 56.1654 154.585 55.8714C154.465 55.5774 154.294 55.3224 154.072 55.1064C153.856 54.8844 153.598 54.7134 153.298 54.5934C153.004 54.4734 152.683 54.4134 152.335 54.4134C151.981 54.4134 151.654 54.4734 151.354 54.5934C151.06 54.7134 150.802 54.8844 150.58 55.1064C150.358 55.3224 150.184 55.5774 150.058 55.8714C149.938 56.1654 149.878 56.4864 149.878 56.8344C149.878 57.1824 149.938 57.5034 150.058 57.7974C150.184 58.0914 150.358 58.3494 150.58 58.5714C150.802 58.7874 151.06 58.9554 151.354 59.0754C151.654 59.1954 151.981 59.2554 152.335 59.2554ZM159.893 60.0564C159.413 60.0564 158.966 59.9754 158.552 59.8134C158.144 59.6514 157.79 59.4264 157.49 59.1384C157.19 58.8444 156.956 58.5024 156.788 58.1124C156.62 57.7224 156.536 57.2964 156.536 56.8344C156.536 56.3724 156.62 55.9464 156.788 55.5564C156.956 55.1664 157.19 54.8274 157.49 54.5394C157.79 54.2454 158.144 54.0174 158.552 53.8554C158.96 53.6934 159.407 53.6124 159.893 53.6124C160.373 53.6124 160.814 53.6934 161.216 53.8554C161.624 54.0114 161.978 54.2364 162.278 54.5304C162.584 54.8184 162.818 55.1574 162.98 55.5474C163.148 55.9374 163.232 56.3664 163.232 56.8344C163.232 57.3024 163.148 57.7314 162.98 58.1214C162.818 58.5114 162.584 58.8534 162.278 59.1474C161.978 59.4354 161.624 59.6604 161.216 59.8224C160.814 59.9784 160.373 60.0564 159.893 60.0564ZM159.893 59.2554C160.241 59.2554 160.562 59.1954 160.856 59.0754C161.156 58.9554 161.414 58.7874 161.63 58.5714C161.852 58.3494 162.023 58.0914 162.143 57.7974C162.269 57.5034 162.332 57.1824 162.332 56.8344C162.332 56.4864 162.269 56.1654 162.143 55.8714C162.023 55.5774 161.852 55.3224 161.63 55.1064C161.414 54.8844 161.156 54.7134 160.856 54.5934C160.562 54.4734 160.241 54.4134 159.893 54.4134C159.539 54.4134 159.212 54.4734 158.912 54.5934C158.618 54.7134 158.36 54.8844 158.138 55.1064C157.916 55.3224 157.742 55.5774 157.616 55.8714C157.496 56.1654 157.436 56.4864 157.436 56.8344C157.436 57.1824 157.496 57.5034 157.616 57.7974C157.742 58.0914 157.916 58.3494 158.138 58.5714C158.36 58.7874 158.618 58.9554 158.912 59.0754C159.212 59.1954 159.539 59.2554 159.893 59.2554ZM164.608 59.9844V53.6844H165.508V59.2014H168.919V59.9844H164.608Z" fill="black"/>
<path d="M185.842 55.9805H199.633L198.693 57.5778H185.842V55.9805Z" fill="#001A33"/>
<path d="M75.5059 57.9805H61.4678L62.7958 56.3831H75.5059V57.9805Z" fill="#001A33"/>
</svg>
