<svg width="205" height="81" viewBox="0 0 205 81" fill="none" xmlns="http://www.w3.org/2000/svg">
<rect x="2.87793" y="44.8047" width="46.7745" height="46.7745" rx="3" transform="rotate(-45 2.87793 44.8047)" fill="#FFC436"/>
<rect x="11.5694" y="45.1367" width="34.4019" height="34.4019" rx="2.5" transform="rotate(-45 11.5694 45.1367)" fill="#FFC436" stroke="black"/>
<path d="M52.0951 41.7372L29.3873 54.8475L11.2111 23.3653L19.33 18.6778L33.9907 44.0708L48.5795 35.6479L52.0951 41.7372Z" fill="black"/>
<path d="M72.1652 42.5352V18.0352H82.4902C85.1036 18.0352 87.4019 18.5485 89.3852 19.5752C91.3919 20.6018 92.9436 22.0368 94.0402 23.8802C95.1602 25.7235 95.7202 27.8585 95.7202 30.2852C95.7202 32.7118 95.1602 34.8468 94.0402 36.6902C92.9436 38.5335 91.3919 39.9685 89.3852 40.9952C87.4019 42.0218 85.1036 42.5352 82.4902 42.5352H72.1652ZM75.6652 39.4902H82.2802C84.3102 39.4902 86.0602 39.1052 87.5302 38.3352C89.0236 37.5652 90.1786 36.4918 90.9952 35.1152C91.8119 33.7152 92.2202 32.1052 92.2202 30.2852C92.2202 28.4418 91.8119 26.8318 90.9952 25.4552C90.1786 24.0785 89.0236 23.0052 87.5302 22.2352C86.0602 21.4652 84.3102 21.0802 82.2802 21.0802H75.6652V39.4902ZM100.591 42.5352V23.9852H103.811V29.0252L103.496 27.7652C104.01 26.4818 104.873 25.5018 106.086 24.8252C107.3 24.1485 108.793 23.8102 110.566 23.8102V27.0652C110.426 27.0418 110.286 27.0302 110.146 27.0302C110.03 27.0302 109.913 27.0302 109.796 27.0302C108 27.0302 106.576 27.5668 105.526 28.6402C104.476 29.7135 103.951 31.2652 103.951 33.2952V42.5352H100.591ZM114.707 42.5352V23.9852H118.067V42.5352H114.707ZM116.387 20.4152C115.734 20.4152 115.186 20.2052 114.742 19.7852C114.322 19.3652 114.112 18.8518 114.112 18.2452C114.112 17.6152 114.322 17.0902 114.742 16.6702C115.186 16.2502 115.734 16.0402 116.387 16.0402C117.041 16.0402 117.577 16.2502 117.997 16.6702C118.441 17.0668 118.662 17.5685 118.662 18.1752C118.662 18.8052 118.452 19.3418 118.032 19.7852C117.612 20.2052 117.064 20.4152 116.387 20.4152ZM135.928 42.8152C134.061 42.8152 132.335 42.5118 130.748 41.9052C129.185 41.2752 127.82 40.4002 126.653 39.2802C125.51 38.1368 124.611 36.8068 123.958 35.2902C123.305 33.7735 122.978 32.1052 122.978 30.2852C122.978 28.4652 123.305 26.7968 123.958 25.2802C124.611 23.7635 125.521 22.4452 126.688 21.3252C127.855 20.1818 129.22 19.3068 130.783 18.7002C132.37 18.0702 134.096 17.7552 135.963 17.7552C137.853 17.7552 139.591 18.0818 141.178 18.7352C142.788 19.3652 144.153 20.3102 145.273 21.5702L142.998 23.7752C142.065 22.7952 141.015 22.0718 139.848 21.6052C138.681 21.1152 137.433 20.8702 136.103 20.8702C134.726 20.8702 133.443 21.1035 132.253 21.5702C131.086 22.0368 130.071 22.6902 129.208 23.5302C128.345 24.3702 127.668 25.3735 127.178 26.5402C126.711 27.6835 126.478 28.9318 126.478 30.2852C126.478 31.6385 126.711 32.8985 127.178 34.0652C127.668 35.2085 128.345 36.2002 129.208 37.0402C130.071 37.8802 131.086 38.5335 132.253 39.0002C133.443 39.4668 134.726 39.7002 136.103 39.7002C137.433 39.7002 138.681 39.4668 139.848 39.0002C141.015 38.5102 142.065 37.7635 142.998 36.7602L145.273 38.9652C144.153 40.2252 142.788 41.1818 141.178 41.8352C139.591 42.4885 137.841 42.8152 135.928 42.8152ZM157 42.7452C155.413 42.7452 154.013 42.4535 152.8 41.8702C151.61 41.2868 150.676 40.4002 150 39.2102C149.346 37.9968 149.02 36.4802 149.02 34.6602V23.9852H152.38V34.2752C152.38 36.0952 152.811 37.4602 153.675 38.3702C154.561 39.2802 155.798 39.7352 157.385 39.7352C158.551 39.7352 159.566 39.5018 160.43 39.0352C161.293 38.5452 161.958 37.8452 162.425 36.9352C162.891 36.0018 163.125 34.8818 163.125 33.5752V23.9852H166.485V42.5352H163.3V37.5302L163.825 38.8602C163.218 40.0968 162.308 41.0535 161.095 41.7302C159.881 42.4068 158.516 42.7452 157 42.7452ZM182.716 42.7452C181.13 42.7452 179.695 42.3952 178.411 41.6952C177.151 40.9718 176.148 39.9102 175.401 38.5102C174.678 37.1102 174.316 35.3602 174.316 33.2602C174.316 31.1602 174.69 29.4102 175.436 28.0102C176.206 26.6102 177.221 25.5602 178.481 24.8602C179.765 24.1602 181.176 23.8102 182.716 23.8102C184.536 23.8102 186.146 24.2068 187.546 25.0002C188.946 25.7935 190.055 26.9018 190.871 28.3252C191.688 29.7252 192.096 31.3702 192.096 33.2602C192.096 35.1502 191.688 36.8068 190.871 38.2302C190.055 39.6535 188.946 40.7618 187.546 41.5552C186.146 42.3485 184.536 42.7452 182.716 42.7452ZM172.881 42.5352V16.5652H176.241V28.9202L175.891 33.2252L176.101 37.5302V42.5352H172.881ZM182.436 39.8052C183.626 39.8052 184.688 39.5368 185.621 39.0002C186.578 38.4635 187.325 37.7052 187.861 36.7252C188.421 35.7218 188.701 34.5668 188.701 33.2602C188.701 31.9302 188.421 30.7868 187.861 29.8302C187.325 28.8502 186.578 28.0918 185.621 27.5552C184.688 27.0185 183.626 26.7502 182.436 26.7502C181.27 26.7502 180.208 27.0185 179.251 27.5552C178.318 28.0918 177.571 28.8502 177.011 29.8302C176.475 30.7868 176.206 31.9302 176.206 33.2602C176.206 34.5668 176.475 35.7218 177.011 36.7252C177.571 37.7052 178.318 38.4635 179.251 39.0002C180.208 39.5368 181.27 39.8052 182.436 39.8052Z" fill="black"/>
<path d="M76 47.5554L204.534 47.5547L188 66.3157H58.1807L76 47.5554Z" fill="#505050"/>
<path d="M88.1257 60.5547V54.2547H90.7807C91.4527 54.2547 92.0437 54.3867 92.5537 54.6507C93.0697 54.9147 93.4687 55.2837 93.7507 55.7577C94.0387 56.2317 94.1827 56.7807 94.1827 57.4047C94.1827 58.0287 94.0387 58.5777 93.7507 59.0517C93.4687 59.5257 93.0697 59.8947 92.5537 60.1587C92.0437 60.4227 91.4527 60.5547 90.7807 60.5547H88.1257ZM89.0257 59.7717H90.7267C91.2487 59.7717 91.6987 59.6727 92.0767 59.4747C92.4607 59.2767 92.7577 59.0007 92.9677 58.6467C93.1777 58.2867 93.2827 57.8727 93.2827 57.4047C93.2827 56.9307 93.1777 56.5167 92.9677 56.1627C92.7577 55.8087 92.4607 55.5327 92.0767 55.3347C91.6987 55.1367 91.2487 55.0377 90.7267 55.0377H89.0257V59.7717ZM95.5612 60.5547V54.2547H98.0182C98.5702 54.2547 99.0412 54.3417 99.4312 54.5157C99.8212 54.6897 100.121 54.9417 100.331 55.2717C100.541 55.6017 100.646 55.9947 100.646 56.4507C100.646 56.9067 100.541 57.2997 100.331 57.6297C100.121 57.9537 99.8212 58.2027 99.4312 58.3767C99.0412 58.5507 98.5702 58.6377 98.0182 58.6377H96.0562L96.4612 58.2237V60.5547H95.5612ZM99.7732 60.5547L98.1712 58.2687H99.1342L100.754 60.5547H99.7732ZM96.4612 58.3137L96.0562 57.8727H97.9912C98.5672 57.8727 99.0022 57.7497 99.2962 57.5037C99.5962 57.2517 99.7462 56.9007 99.7462 56.4507C99.7462 56.0007 99.5962 55.6527 99.2962 55.4067C99.0022 55.1607 98.5672 55.0377 97.9912 55.0377H96.0562L96.4612 54.5877V58.3137ZM102.1 60.5547V54.2547H103V60.5547H102.1ZM106.643 60.5547L103.871 54.2547H104.843L107.39 60.0687H106.832L109.397 54.2547H110.297L107.534 60.5547H106.643ZM111.1 60.5547V54.2547H112V60.5547H111.1ZM113.886 60.5547V54.2547H114.624L118.791 59.4297H118.404V54.2547H119.304V60.5547H118.566L114.399 55.3797H114.786V60.5547H113.886ZM124.034 60.6267C123.548 60.6267 123.101 60.5487 122.693 60.3927C122.285 60.2307 121.931 60.0057 121.631 59.7177C121.331 59.4237 121.097 59.0817 120.929 58.6917C120.761 58.3017 120.677 57.8727 120.677 57.4047C120.677 56.9367 120.761 56.5077 120.929 56.1177C121.097 55.7277 121.331 55.3887 121.631 55.1007C121.937 54.8067 122.294 54.5817 122.702 54.4257C123.11 54.2637 123.56 54.1827 124.052 54.1827C124.55 54.1827 125.006 54.2637 125.42 54.4257C125.834 54.5877 126.185 54.8307 126.473 55.1547L125.915 55.7127C125.657 55.4607 125.375 55.2777 125.069 55.1637C124.769 55.0437 124.442 54.9837 124.088 54.9837C123.728 54.9837 123.392 55.0437 123.08 55.1637C122.774 55.2837 122.507 55.4517 122.279 55.6677C122.057 55.8837 121.883 56.1417 121.757 56.4417C121.637 56.7357 121.577 57.0567 121.577 57.4047C121.577 57.7467 121.637 58.0677 121.757 58.3677C121.883 58.6617 122.057 58.9197 122.279 59.1417C122.507 59.3577 122.774 59.5257 123.08 59.6457C123.386 59.7657 123.719 59.8257 124.079 59.8257C124.415 59.8257 124.736 59.7747 125.042 59.6727C125.354 59.5647 125.642 59.3877 125.906 59.1417L126.419 59.8257C126.107 60.0897 125.741 60.2907 125.321 60.4287C124.907 60.5607 124.478 60.6267 124.034 60.6267ZM125.555 59.7087V57.3687H126.419V59.8257L125.555 59.7087ZM132.395 60.6267C131.915 60.6267 131.456 60.5547 131.018 60.4107C130.58 60.2607 130.235 60.0687 129.983 59.8347L130.316 59.1327C130.556 59.3427 130.862 59.5167 131.234 59.6547C131.606 59.7927 131.993 59.8617 132.395 59.8617C132.761 59.8617 133.058 59.8197 133.286 59.7357C133.514 59.6517 133.682 59.5377 133.79 59.3937C133.898 59.2437 133.952 59.0757 133.952 58.8897C133.952 58.6737 133.88 58.4997 133.736 58.3677C133.598 58.2357 133.415 58.1307 133.187 58.0527C132.965 57.9687 132.719 57.8967 132.449 57.8367C132.179 57.7767 131.906 57.7077 131.63 57.6297C131.36 57.5457 131.111 57.4407 130.883 57.3147C130.661 57.1887 130.481 57.0207 130.343 56.8107C130.205 56.5947 130.136 56.3187 130.136 55.9827C130.136 55.6587 130.22 55.3617 130.388 55.0917C130.562 54.8157 130.826 54.5967 131.18 54.4347C131.54 54.2667 131.996 54.1827 132.548 54.1827C132.914 54.1827 133.277 54.2307 133.637 54.3267C133.997 54.4227 134.309 54.5607 134.573 54.7407L134.276 55.4607C134.006 55.2807 133.721 55.1517 133.421 55.0737C133.121 54.9897 132.83 54.9477 132.548 54.9477C132.194 54.9477 131.903 54.9927 131.675 55.0827C131.447 55.1727 131.279 55.2927 131.171 55.4427C131.069 55.5927 131.018 55.7607 131.018 55.9467C131.018 56.1687 131.087 56.3457 131.225 56.4777C131.369 56.6097 131.552 56.7147 131.774 56.7927C132.002 56.8707 132.251 56.9427 132.521 57.0087C132.791 57.0687 133.061 57.1377 133.331 57.2157C133.607 57.2937 133.856 57.3957 134.078 57.5217C134.306 57.6477 134.489 57.8157 134.627 58.0257C134.765 58.2357 134.834 58.5057 134.834 58.8357C134.834 59.1537 134.747 59.4507 134.573 59.7267C134.399 59.9967 134.129 60.2157 133.763 60.3837C133.403 60.5457 132.947 60.6267 132.395 60.6267ZM138.966 60.6267C138.486 60.6267 138.042 60.5487 137.634 60.3927C137.232 60.2307 136.881 60.0057 136.581 59.7177C136.287 59.4237 136.056 59.0817 135.888 58.6917C135.72 58.3017 135.636 57.8727 135.636 57.4047C135.636 56.9367 135.72 56.5077 135.888 56.1177C136.056 55.7277 136.29 55.3887 136.59 55.1007C136.89 54.8067 137.241 54.5817 137.643 54.4257C138.051 54.2637 138.495 54.1827 138.975 54.1827C139.461 54.1827 139.908 54.2667 140.316 54.4347C140.73 54.5967 141.081 54.8397 141.369 55.1637L140.784 55.7307C140.544 55.4787 140.274 55.2927 139.974 55.1727C139.674 55.0467 139.353 54.9837 139.011 54.9837C138.657 54.9837 138.327 55.0437 138.021 55.1637C137.721 55.2837 137.46 55.4517 137.238 55.6677C137.016 55.8837 136.842 56.1417 136.716 56.4417C136.596 56.7357 136.536 57.0567 136.536 57.4047C136.536 57.7527 136.596 58.0767 136.716 58.3767C136.842 58.6707 137.016 58.9257 137.238 59.1417C137.46 59.3577 137.721 59.5257 138.021 59.6457C138.327 59.7657 138.657 59.8257 139.011 59.8257C139.353 59.8257 139.674 59.7657 139.974 59.6457C140.274 59.5197 140.544 59.3277 140.784 59.0697L141.369 59.6367C141.081 59.9607 140.73 60.2067 140.316 60.3747C139.908 60.5427 139.458 60.6267 138.966 60.6267ZM147.171 54.2547H148.071V60.5547H147.171V54.2547ZM143.553 60.5547H142.653V54.2547H143.553V60.5547ZM147.252 57.7467H143.463V56.9637H147.252V57.7467ZM152.801 60.6267C152.321 60.6267 151.874 60.5457 151.46 60.3837C151.052 60.2217 150.698 59.9967 150.398 59.7087C150.098 59.4147 149.864 59.0727 149.696 58.6827C149.528 58.2927 149.444 57.8667 149.444 57.4047C149.444 56.9427 149.528 56.5167 149.696 56.1267C149.864 55.7367 150.098 55.3977 150.398 55.1097C150.698 54.8157 151.052 54.5877 151.46 54.4257C151.868 54.2637 152.315 54.1827 152.801 54.1827C153.281 54.1827 153.722 54.2637 154.124 54.4257C154.532 54.5817 154.886 54.8067 155.186 55.1007C155.492 55.3887 155.726 55.7277 155.888 56.1177C156.056 56.5077 156.14 56.9367 156.14 57.4047C156.14 57.8727 156.056 58.3017 155.888 58.6917C155.726 59.0817 155.492 59.4237 155.186 59.7177C154.886 60.0057 154.532 60.2307 154.124 60.3927C153.722 60.5487 153.281 60.6267 152.801 60.6267ZM152.801 59.8257C153.149 59.8257 153.47 59.7657 153.764 59.6457C154.064 59.5257 154.322 59.3577 154.538 59.1417C154.76 58.9197 154.931 58.6617 155.051 58.3677C155.177 58.0737 155.24 57.7527 155.24 57.4047C155.24 57.0567 155.177 56.7357 155.051 56.4417C154.931 56.1477 154.76 55.8927 154.538 55.6767C154.322 55.4547 154.064 55.2837 153.764 55.1637C153.47 55.0437 153.149 54.9837 152.801 54.9837C152.447 54.9837 152.12 55.0437 151.82 55.1637C151.526 55.2837 151.268 55.4547 151.046 55.6767C150.824 55.8927 150.65 56.1477 150.524 56.4417C150.404 56.7357 150.344 57.0567 150.344 57.4047C150.344 57.7527 150.404 58.0737 150.524 58.3677C150.65 58.6617 150.824 58.9197 151.046 59.1417C151.268 59.3577 151.526 59.5257 151.82 59.6457C152.12 59.7657 152.447 59.8257 152.801 59.8257ZM160.359 60.6267C159.879 60.6267 159.432 60.5457 159.018 60.3837C158.61 60.2217 158.256 59.9967 157.956 59.7087C157.656 59.4147 157.422 59.0727 157.254 58.6827C157.086 58.2927 157.002 57.8667 157.002 57.4047C157.002 56.9427 157.086 56.5167 157.254 56.1267C157.422 55.7367 157.656 55.3977 157.956 55.1097C158.256 54.8157 158.61 54.5877 159.018 54.4257C159.426 54.2637 159.873 54.1827 160.359 54.1827C160.839 54.1827 161.28 54.2637 161.682 54.4257C162.09 54.5817 162.444 54.8067 162.744 55.1007C163.05 55.3887 163.284 55.7277 163.446 56.1177C163.614 56.5077 163.698 56.9367 163.698 57.4047C163.698 57.8727 163.614 58.3017 163.446 58.6917C163.284 59.0817 163.05 59.4237 162.744 59.7177C162.444 60.0057 162.09 60.2307 161.682 60.3927C161.28 60.5487 160.839 60.6267 160.359 60.6267ZM160.359 59.8257C160.707 59.8257 161.028 59.7657 161.322 59.6457C161.622 59.5257 161.88 59.3577 162.096 59.1417C162.318 58.9197 162.489 58.6617 162.609 58.3677C162.735 58.0737 162.798 57.7527 162.798 57.4047C162.798 57.0567 162.735 56.7357 162.609 56.4417C162.489 56.1477 162.318 55.8927 162.096 55.6767C161.88 55.4547 161.622 55.2837 161.322 55.1637C161.028 55.0437 160.707 54.9837 160.359 54.9837C160.005 54.9837 159.678 55.0437 159.378 55.1637C159.084 55.2837 158.826 55.4547 158.604 55.6767C158.382 55.8927 158.208 56.1477 158.082 56.4417C157.962 56.7357 157.902 57.0567 157.902 57.4047C157.902 57.7527 157.962 58.0737 158.082 58.3677C158.208 58.6617 158.382 58.9197 158.604 59.1417C158.826 59.3577 159.084 59.5257 159.378 59.6457C159.678 59.7657 160.005 59.8257 160.359 59.8257ZM165.074 60.5547V54.2547H165.974V59.7717H169.385V60.5547H165.074Z" fill="white"/>
<path d="M186.308 56.5508H200.099L199.159 58.1481H186.308V56.5508Z" fill="white"/>
<path d="M75.9717 58.5508H61.9336L63.2616 56.9534H75.9717V58.5508Z" fill="white"/>
</svg>
