<svg width="230" height="231" viewBox="0 0 230 231" fill="none" xmlns="http://www.w3.org/2000/svg">
<path d="M15.4717 72.2756V157.181L73.6478 215.672L157.61 212.213L214.528 157.181V72.2756L157.61 15.6719H73.6478L15.4717 72.2756Z" stroke="white" stroke-width="7"/>
<g clip-path="url(#clip0_637_6178)">
<path d="M115.472 159.422C103.868 159.422 92.7405 154.813 84.5358 146.608C76.331 138.403 71.7217 127.275 71.7217 115.672C71.7217 104.069 76.331 92.9407 84.5358 84.736C92.7405 76.5312 103.868 71.9219 115.472 71.9219C127.075 71.9219 138.203 76.5312 146.408 84.736C154.612 92.9407 159.222 104.069 159.222 115.672C159.222 127.275 154.612 138.403 146.408 146.608C138.203 154.813 127.075 159.422 115.472 159.422ZM115.472 165.672C128.733 165.672 141.45 160.404 150.827 151.027C160.204 141.65 165.472 128.933 165.472 115.672C165.472 102.411 160.204 89.6934 150.827 80.3165C141.45 70.9397 128.733 65.6719 115.472 65.6719C102.211 65.6719 89.4932 70.9397 80.1163 80.3165C70.7395 89.6934 65.4717 102.411 65.4717 115.672C65.4717 128.933 70.7395 141.65 80.1163 151.027C89.4932 160.404 102.211 165.672 115.472 165.672Z" fill="white"/>
<path d="M92.2528 125.466C92.9706 125.051 93.8235 124.939 94.6241 125.153C95.4246 125.368 96.1072 125.892 96.5216 126.609C98.441 129.936 101.203 132.699 104.53 134.619C107.857 136.539 111.631 137.549 115.472 137.547C119.313 137.549 123.087 136.539 126.413 134.619C129.74 132.699 132.502 129.936 134.422 126.609C134.625 126.251 134.898 125.937 135.224 125.684C135.549 125.432 135.922 125.246 136.319 125.138C136.717 125.03 137.132 125.002 137.541 125.055C137.95 125.108 138.344 125.242 138.701 125.448C139.058 125.654 139.37 125.928 139.621 126.256C139.871 126.583 140.054 126.957 140.159 127.355C140.265 127.754 140.29 128.169 140.234 128.577C140.179 128.986 140.043 129.379 139.834 129.734C137.366 134.012 133.815 137.563 129.538 140.032C125.261 142.501 120.41 143.799 115.472 143.797C110.533 143.799 105.682 142.501 101.405 140.032C97.1282 137.563 93.5771 134.012 91.1091 129.734C90.6947 129.017 90.5824 128.164 90.7969 127.363C91.0114 126.563 91.5351 125.88 92.2528 125.466ZM109.222 106.297C109.222 111.472 106.422 115.672 102.972 115.672C99.5216 115.672 96.7216 111.472 96.7216 106.297C96.7216 101.122 99.5216 96.9219 102.972 96.9219C106.422 96.9219 109.222 101.122 109.222 106.297ZM134.222 106.297C134.222 111.472 131.422 115.672 127.972 115.672C124.522 115.672 121.722 111.472 121.722 106.297C121.722 101.122 124.522 96.9219 127.972 96.9219C131.422 96.9219 134.222 101.122 134.222 106.297Z" fill="white"/>
</g>
<defs>
<clipPath id="clip0_637_6178">
<rect width="100" height="100" fill="white" transform="translate(65.4717 65.6719)"/>
</clipPath>
</defs>
</svg>
