<svg width="230" height="230" viewBox="0 0 230 230" fill="none" xmlns="http://www.w3.org/2000/svg">
<path d="M108.753 17.4562L15.6138 110.596C13.9456 115.602 16.3089 120.558 17.699 122.41C47.5871 152.762 107.641 213.465 108.753 213.465C113.758 216.245 118.253 214.623 119.875 213.465L210.929 122.41C217.046 118.518 214.868 112.912 213.014 110.596L119.875 17.4562C116.538 13.0078 111.07 15.6027 108.753 17.4562Z" stroke="white" stroke-width="7"/>
<path d="M98.6655 128.728C97.3596 129.35 95.9323 129.875 94.4825 130.334C92.1038 131.088 89.4969 131.715 86.9905 132.292C86.4718 132.411 85.9584 132.528 85.4517 132.644C83.4731 133.095 81.5949 133.523 79.8866 133.981C77.7135 134.564 76.0457 135.14 74.9567 135.747L74.9508 135.75C73.3381 136.644 71.9643 137.739 70.8761 139.178L98.6655 128.728ZM98.6655 128.728C100.019 135.968 102.662 141.543 105.163 146.819C105.587 147.715 106.008 148.602 106.417 149.487L109.232 155.572L111.089 149.13L115.172 134.964L115.471 133.925L114.918 132.995C114.54 132.359 114.474 131.986 114.466 131.831L114.46 131.701L114.725 131.614C114.956 131.538 115.271 131.505 115.62 131.555L116.428 131.672L116.396 132.357C116.387 132.573 116.33 132.897 116.148 133.352L115.829 134.148L116.067 134.973L120.15 149.138L121.975 155.472L124.809 149.52C124.97 149.181 125.133 148.841 125.296 148.499C128.153 142.517 131.208 136.118 132.125 128.873C133.006 129.276 133.928 129.633 134.858 129.956C137.294 130.8 140.028 131.484 142.675 132.102C143.473 132.288 144.26 132.467 145.032 132.643C146.868 133.062 148.619 133.461 150.243 133.888C152.574 134.501 154.362 135.104 155.514 135.746L155.517 135.748C157.123 136.642 158.509 137.748 159.599 139.184C161.28 141.402 162.409 144.428 162.722 148.52L162.736 148.699L162.775 148.875L163.898 153.896C163.756 154.82 163.445 155.342 163.11 155.661C162.733 156.021 162.042 156.394 160.72 156.511H115.619H69.7486C68.4317 156.398 67.7412 156.027 67.3633 155.666C67.0285 155.347 66.7158 154.823 66.5735 153.897L67.6964 148.875L67.7356 148.699L67.7493 148.52C68.0628 144.429 69.1914 141.409 70.8757 139.179L98.6655 128.728ZM96.5411 82.9237L96.4353 82.9674C96.4424 81.702 96.471 80.4602 96.5235 79.2851C96.6101 78.4578 96.7713 77.621 97.0041 76.7811C97.9848 73.2831 100.48 70.3453 103.754 68.2617L103.758 68.2595C104.879 67.5432 106.127 66.9389 107.469 66.4541L107.474 66.4522C109.946 65.5533 110.671 63.2014 110.974 62.2186C110.999 62.1349 111.022 62.061 111.043 61.9989C111.119 61.7675 111.178 61.6083 111.221 61.5C114.075 61.5012 118.096 62.7097 122.108 64.6358C126.199 66.5995 129.825 69.0882 131.739 71.1569C133.857 73.4541 135.275 76.5372 135.598 80.8531L135.509 84.5324L134.246 84.7312C129.054 85.5481 124.478 84.3564 119.359 83.0229C118.573 82.8181 117.774 82.61 116.957 82.4053C110.938 80.8955 104.305 79.7165 96.5411 82.9237ZM140.129 95.3552C140.127 95.3504 140.126 95.3457 140.125 95.341L140.25 95.3085L140.129 95.3552ZM110.385 129.976C109.107 130.666 107.744 131.197 106.301 131.61C105.94 130.973 105.801 130.42 105.793 129.942C105.784 129.465 105.903 128.882 106.287 128.182C107.708 128.651 109.073 129.251 110.385 129.976ZM120.063 130.262L119.453 129.94C120.098 129.631 120.793 129.342 121.543 129.05C121.926 128.901 122.333 128.748 122.755 128.59C123.44 128.332 124.164 128.06 124.887 127.766C125.546 128.683 125.689 129.372 125.662 129.853C125.632 130.402 125.358 131.147 124.499 132.079C122.97 131.631 121.495 131.02 120.063 130.262Z" stroke="white" stroke-width="5"/>
</svg>
