<svg width="230" height="231" viewBox="0 0 230 231" fill="none" xmlns="http://www.w3.org/2000/svg">
<circle cx="115" cy="115.672" r="96.5" stroke="white" stroke-width="7"/>
<g clip-path="url(#clip0_637_6179)">
<path d="M115 87.5469C115 86.7181 114.671 85.9232 114.085 85.3372C113.499 84.7511 112.704 84.4219 111.875 84.4219C111.046 84.4219 110.251 84.7511 109.665 85.3372C109.079 85.9232 108.75 86.7181 108.75 87.5469V121.922C108.75 122.473 108.896 123.014 109.173 123.49C109.449 123.966 109.847 124.361 110.325 124.634L132.2 137.134C132.918 137.522 133.759 137.614 134.544 137.39C135.328 137.166 135.994 136.644 136.399 135.936C136.804 135.227 136.916 134.388 136.71 133.599C136.505 132.809 135.999 132.131 135.3 131.709L115 120.109V87.5469Z" fill="white"/>
<path d="M115 165.672C128.261 165.672 140.979 160.404 150.355 151.027C159.732 141.65 165 128.933 165 115.672C165 102.411 159.732 89.6934 150.355 80.3165C140.979 70.9397 128.261 65.6719 115 65.6719C101.739 65.6719 89.0215 70.9397 79.6447 80.3165C70.2678 89.6934 65 102.411 65 115.672C65 128.933 70.2678 141.65 79.6447 151.027C89.0215 160.404 101.739 165.672 115 165.672ZM158.75 115.672C158.75 127.275 154.141 138.403 145.936 146.608C137.731 154.813 126.603 159.422 115 159.422C103.397 159.422 92.2688 154.813 84.0641 146.608C75.8594 138.403 71.25 127.275 71.25 115.672C71.25 104.069 75.8594 92.9407 84.0641 84.736C92.2688 76.5312 103.397 71.9219 115 71.9219C126.603 71.9219 137.731 76.5312 145.936 84.736C154.141 92.9407 158.75 104.069 158.75 115.672Z" fill="white"/>
</g>
<defs>
<clipPath id="clip0_637_6179">
<rect width="100" height="100" fill="white" transform="translate(65 65.6719)"/>
</clipPath>
</defs>
</svg>
