<svg width="236" height="231" viewBox="0 0 236 231" fill="none" xmlns="http://www.w3.org/2000/svg">
<path d="M11.6268 215.672H224.479C234.303 214.364 231.847 204.757 229.392 200.117C196.099 143.357 128.205 27.8705 122.965 20.0113C117.726 12.1522 113.687 16.7367 112.323 20.0113C80.3948 75.6804 14.7377 189.638 7.53349 200.117C0.329248 210.596 7.2606 214.853 11.6268 215.672Z" stroke="white" stroke-width="7"/>
<circle cx="118.411" cy="146.672" r="6.5" stroke="white" stroke-width="7"/>
<path d="M118.411 190.422C106.808 190.422 95.6799 185.813 87.4752 177.608C79.2705 169.403 74.6611 158.275 74.6611 146.672C74.6611 135.069 79.2705 123.941 87.4752 115.736C95.6799 107.531 106.808 102.922 118.411 102.922C130.014 102.922 141.142 107.531 149.347 115.736C157.552 123.941 162.161 135.069 162.161 146.672C162.161 158.275 157.552 169.403 149.347 177.608C141.142 185.813 130.014 190.422 118.411 190.422ZM118.411 196.672C131.672 196.672 144.39 191.404 153.766 182.027C163.143 172.65 168.411 159.933 168.411 146.672C168.411 133.411 163.143 120.693 153.766 111.317C144.39 101.94 131.672 96.6719 118.411 96.6719C105.15 96.6719 92.4326 101.94 83.0558 111.317C73.679 120.693 68.4111 133.411 68.4111 146.672C68.4111 159.933 73.679 172.65 83.0558 182.027C92.4326 191.404 105.15 196.672 118.411 196.672Z" fill="white"/>
<rect x="125.411" y="142.672" width="37" height="5" fill="white"/>
<rect x="72.4111" y="142.672" width="37" height="5" fill="white"/>
<rect x="115.411" y="155.672" width="5" height="36" fill="white"/>
</svg>
