<svg width="70" height="71" viewBox="0 0 70 71" fill="none" xmlns="http://www.w3.org/2000/svg">
<g clip-path="url(#clip0_573_552)">
<path fill-rule="evenodd" clip-rule="evenodd" d="M23.5758 25.9804C22.9608 26.0054 22.4959 26.1304 22.1759 26.3454C21.9959 26.4654 21.8609 26.6254 21.7759 26.8104C21.6809 27.0153 21.6359 27.2653 21.6459 27.5553C21.6709 28.4002 22.1109 29.5051 22.9658 30.775L22.9758 30.795L25.7556 35.1997C26.8705 36.9695 28.0354 38.7744 29.4853 40.0993C30.8802 41.3741 32.57 42.2341 34.8048 42.2441C37.2246 42.2491 38.9995 41.3541 40.4344 40.0093C41.9293 38.6094 43.1091 36.6895 44.274 34.7747L47.3988 29.6251C47.9837 28.2952 48.1937 27.4053 48.0587 26.8853C47.9787 26.5754 47.6388 26.4204 47.0538 26.3954C46.9288 26.3904 46.8038 26.3854 46.6739 26.3904C46.5339 26.3954 46.3889 26.4054 46.2389 26.4154C46.1539 26.4254 46.0739 26.4154 45.9989 26.4004C45.7189 26.4154 45.434 26.3954 45.144 26.3554L46.2139 21.6158C38.2696 22.8657 32.33 16.9662 23.9307 20.4359L24.5357 26.0204C24.1907 26.0354 23.8708 26.0204 23.5758 25.9804ZM28.6054 49.9634C27.0755 48.2236 26.9455 46.3987 28.6054 44.4689C30.4852 44.9438 32.2101 45.7488 33.7999 46.8387C34.1799 46.7137 34.6049 46.6837 35.0198 46.7437C36.7047 45.5288 38.8745 45.0488 40.7643 44.1439C43.0042 46.3237 42.7642 48.3336 40.5594 50.2034C39.2295 49.8984 37.9696 49.4135 36.7697 48.7785C36.7547 49.1035 36.6747 49.4635 36.5147 49.8634L38.9645 58.3627C40.8593 54.3831 42.8292 50.4284 43.2791 45.9088C42.5292 45.0288 41.7343 43.8639 41.0443 42.854C40.8393 42.554 40.6494 42.2741 40.4644 42.0091C38.9495 43.119 37.1296 43.8139 34.7998 43.8039C32.295 43.7989 30.3652 42.904 28.7703 41.5541C28.7603 41.5691 28.7503 41.5891 28.7403 41.6041C28.4804 41.9641 28.1904 42.3891 27.8754 42.849C27.2855 43.7139 26.6255 44.6839 25.9756 45.4988C26.8155 50.7384 28.8253 54.4231 30.6452 58.3577L33.095 49.8584C32.78 49.3285 32.635 48.8685 32.615 48.4686C31.3601 49.1835 30.0102 49.6485 28.6054 49.9634ZM41.4343 41.2142C41.6293 41.4941 41.8493 41.8141 42.0792 42.1491C42.5092 42.779 42.9842 43.474 43.4541 44.1089C46.7038 46.9137 55.9981 47.4936 59.4728 49.4335C60.5777 50.0484 61.5826 50.8384 62.3875 51.8983C63.6074 53.5081 64.3574 55.618 64.5624 58.2927L65.2923 61.5575C65.1123 63.4473 64.0424 64.5372 61.9276 64.7022H34.8048H7.22214C5.11232 64.5422 4.03741 63.4523 3.85742 61.5575L4.58736 58.2927C4.79234 55.618 5.54228 53.5131 6.76218 51.8983C7.56711 50.8334 8.56703 50.0484 9.67694 49.4335C12.9767 47.5936 21.5209 46.9787 25.1606 44.5189C25.7306 43.7839 26.3155 42.919 26.8455 42.1491C27.1705 41.6691 27.4755 41.2242 27.7304 40.8742C27.7754 40.8142 27.8254 40.7642 27.8854 40.7242C26.5405 39.3443 25.4606 37.6745 24.4307 36.0346L21.6559 31.62C20.641 30.1051 20.1161 28.7252 20.0811 27.5903C20.0661 27.0553 20.1561 26.5704 20.351 26.1454C20.556 25.7004 20.876 25.3255 21.306 25.0355C21.506 24.9005 21.7309 24.7855 21.9809 24.6905C21.8009 22.2957 21.7359 19.281 21.8509 16.7562C21.9109 16.1562 22.0259 15.5563 22.1909 14.9613C22.9008 12.4266 24.6807 10.3867 26.8805 8.98684C27.6554 8.49189 28.5054 8.08192 29.4053 7.75695C31.0002 7.177 30.2252 4.7372 31.9951 4.6972C36.1397 4.60221 42.9292 8.10692 45.5789 10.9717C47.1188 12.6415 48.0887 14.8464 48.2937 17.7711L48.1187 24.9705C48.8887 25.2055 49.3786 25.6905 49.5836 26.4804C49.8086 27.3553 49.5636 28.5902 48.8237 30.2701C48.8087 30.3001 48.7937 30.3301 48.7787 30.3601L45.6139 35.5696C44.394 37.5745 43.1591 39.5893 41.5043 41.1342L41.4343 41.2142Z" fill="#806300"/>
</g>
<defs>
<clipPath id="clip0_573_552">
<rect width="61.4349" height="60" fill="white" transform="translate(4.28223 5.14062)"/>
</clipPath>
</defs>
</svg>
