<svg width="70" height="71" viewBox="0 0 70 71" fill="none" xmlns="http://www.w3.org/2000/svg">
<g clip-path="url(#clip0_573_601)">
<path fill-rule="evenodd" clip-rule="evenodd" d="M47.9248 12.667L27.4756 25.0937H33.291L48.3887 15.9189L50.6055 14.5713L56.9971 25.0937H60.7178C61.5283 25.0937 62.2607 25.4258 62.793 25.9531C63.3252 26.4854 63.6572 27.2178 63.6572 28.0234V62.4912C63.6572 63.2969 63.3252 64.0293 62.7979 64.5566V64.5615C62.2656 65.0938 61.5332 65.4209 60.7227 65.4209H9.29199C8.48145 65.4209 7.74902 65.0938 7.2168 64.5615V64.5566C6.68457 64.0293 6.35254 63.2969 6.35254 62.4961V28.0234C6.35254 27.2178 6.68457 26.4805 7.21191 25.9531C7.74414 25.4209 8.47656 25.0937 9.28711 25.0937H10.5078L42.2559 5.80176C42.6611 5.55762 43.1201 5.42578 43.5937 5.42578C43.7988 5.42578 44.0039 5.4502 44.2041 5.49902C44.8682 5.66016 45.4443 6.08008 45.7959 6.66602L49.0332 11.9932L47.9248 12.667ZM9.22852 27.7012C9.11621 27.8232 9.02344 27.96 8.95508 28.1113V32.3545H61.0449V28.0234C61.0449 27.9307 61.0107 27.8477 60.9521 27.7939H60.9473C60.8887 27.7354 60.8057 27.6963 60.7129 27.6963H9.28711C9.26758 27.6963 9.24805 27.6963 9.22852 27.7012ZM14.1553 46.7881H23.457V50.2695H14.1553V46.7881ZM14.1553 55.0303H40.1563V58.1699H14.1553V55.0303ZM48.4473 46.7881H57.749V50.2695H48.4473V46.7881ZM37.0166 46.7881H46.3184V50.2695H37.0166V46.7881ZM25.5859 46.7881H34.8877V50.2695H25.5859V46.7881ZM61.0449 42.1152H8.95508V62.4912C8.95508 62.584 8.98926 62.667 9.05273 62.7256H9.05762C9.12109 62.7891 9.2041 62.8232 9.28711 62.8232H60.7178C60.8057 62.8232 60.8887 62.7842 60.9521 62.7256C61.0156 62.6621 61.0498 62.5791 61.0498 62.4912V42.1152H61.0449Z" fill="#806300"/>
</g>
<defs>
<clipPath id="clip0_573_601">
<rect width="57.2949" height="60" fill="white" transform="translate(6.35254 5.42578)"/>
</clipPath>
</defs>
</svg>
