<svg width="70" height="71" viewBox="0 0 70 71" fill="none" xmlns="http://www.w3.org/2000/svg">
<g clip-path="url(#clip0_573_575)">
<path fill-rule="evenodd" clip-rule="evenodd" d="M23.5758 26.2656C22.9608 26.2906 22.4959 26.4156 22.1759 26.6306C21.9959 26.7505 21.8609 26.9105 21.7759 27.0955C21.6809 27.3005 21.6359 27.5505 21.6459 27.8405C21.6709 28.6854 22.1109 29.7903 22.9658 31.0602L22.9758 31.0802L25.7556 35.4848C26.8705 37.2547 28.0354 39.0595 29.4853 40.3844C30.8802 41.6593 32.57 42.5192 34.8048 42.5292C37.2246 42.5342 38.9995 41.6393 40.4344 40.2944C41.9293 38.8945 43.1091 36.9747 44.274 35.0599L47.3988 29.9103C47.9837 28.5804 48.1937 27.6905 48.0587 27.1705C47.9787 26.8605 47.6388 26.7055 47.0538 26.6805C46.9288 26.6755 46.8038 26.6706 46.6739 26.6755C46.5339 26.6805 46.3889 26.6905 46.2389 26.7005C46.1539 26.7105 46.0739 26.7005 45.9989 26.6855C45.7189 26.7005 45.434 26.6805 45.144 26.6406L46.2139 21.9009C38.2696 23.1508 32.33 17.2513 23.9307 20.721L24.5357 26.3056C24.1907 26.3206 23.8708 26.3056 23.5758 26.2656ZM28.6054 50.2486C27.0755 48.5087 26.9455 46.6839 28.6054 44.754C30.4852 45.229 32.2101 46.0339 33.7999 47.1238C34.1799 46.9989 34.6049 46.9689 35.0198 47.0288C36.7047 45.814 38.8745 45.334 40.7643 44.4291C43.0042 46.6089 42.7642 48.6187 40.5594 50.4886C39.2295 50.1836 37.9696 49.6986 36.7697 49.0637C36.7547 49.3887 36.6747 49.7486 36.5147 50.1486L38.9645 58.6479C40.8593 54.6682 42.8292 50.7135 43.2791 46.1939C42.5292 45.314 41.7343 44.1491 41.0443 43.1392C40.8393 42.8392 40.6494 42.5592 40.4644 42.2942C38.9495 43.4042 37.1296 44.0991 34.7998 44.0891C32.295 44.0841 30.3652 43.1892 28.7703 41.8393C28.7603 41.8543 28.7503 41.8743 28.7403 41.8893C28.4804 42.2493 28.1904 42.6742 27.8754 43.1342C27.2855 43.9991 26.6255 44.969 25.9756 45.784C26.8155 51.0235 28.8253 54.7082 30.6452 58.6429L33.095 50.1436C32.78 49.6136 32.635 49.1537 32.615 48.7537C31.3601 49.4686 30.0102 49.9336 28.6054 50.2486ZM41.4343 41.4993C41.6293 41.7793 41.8493 42.0993 42.0792 42.4342C42.5092 43.0642 42.9842 43.7591 43.4541 44.3941C46.7038 47.1988 55.9981 47.7788 59.4728 49.7186C60.5777 50.3336 61.5826 51.1235 62.3875 52.1834C63.6074 53.7933 64.3574 55.9031 64.5624 58.5779L65.2923 61.8426C65.1123 63.7325 64.0424 64.8224 61.9276 64.9874H34.8048H7.22214C5.11232 64.8274 4.03741 63.7375 3.85742 61.8426L4.58736 58.5779C4.79234 55.9031 5.54228 53.7983 6.76218 52.1834C7.56711 51.1185 8.56703 50.3336 9.67694 49.7186C12.9767 47.8788 21.5209 47.2638 25.1606 44.804C25.7306 44.0691 26.3155 43.2042 26.8455 42.4342C27.1705 41.9543 27.4755 41.5093 27.7304 41.1593C27.7754 41.0993 27.8254 41.0494 27.8854 41.0094C26.5405 39.6295 25.4606 37.9596 24.4307 36.3197L21.6559 31.9051C20.641 30.3902 20.1161 29.0104 20.0811 27.8754C20.0661 27.3405 20.1561 26.8555 20.351 26.4306C20.556 25.9856 20.876 25.6106 21.306 25.3207C21.506 25.1857 21.7309 25.0707 21.9809 24.9757C21.8009 22.5809 21.7359 19.5661 21.8509 17.0414C21.9109 16.4414 22.0259 15.8415 22.1909 15.2465C22.9008 12.7117 24.6807 10.6719 26.8805 9.272C27.6554 8.77704 28.5054 8.36708 29.4053 8.0421C31.0002 7.46215 30.2252 5.02236 31.9951 4.98236C36.1397 4.88737 42.9292 8.39207 45.5789 11.2568C47.1188 12.9267 48.0887 15.1315 48.2937 18.0563L48.1187 25.2557C48.8887 25.4906 49.3786 25.9756 49.5836 26.7655C49.8086 27.6405 49.5636 28.8754 48.8237 30.5552C48.8087 30.5852 48.7937 30.6152 48.7787 30.6452L45.6139 35.8548C44.394 37.8596 43.1591 39.8744 41.5043 41.4193L41.4343 41.4993Z" fill="#806300"/>
</g>
<defs>
<clipPath id="clip0_573_575">
<rect width="61.4349" height="60" fill="white" transform="translate(4.28223 5.42578)"/>
</clipPath>
</defs>
</svg>
