<svg width="70" height="71" viewBox="0 0 70 71" fill="none" xmlns="http://www.w3.org/2000/svg">
<g clip-path="url(#clip0_573_590)">
<path fill-rule="evenodd" clip-rule="evenodd" d="M38.8061 41.0212L39.1984 41.5818C39.6525 42.2488 40.1513 42.9887 40.6502 43.6557C41.8945 44.5879 43.3038 45.2764 44.8038 45.6849C43.6554 48.284 43.0635 51.0945 43.0661 53.936C43.0635 57.895 44.2939 61.7565 46.5863 64.9842H4.11996C1.87781 64.8161 0.756735 63.6613 0.560547 61.6602C1.41817 58.297 1.54149 54.6647 3.6323 51.8901C4.46502 50.8125 5.52042 49.9273 6.72646 49.2948C10.2018 47.3497 17.4664 46.6995 21.3005 44.1042C21.9058 43.325 22.5224 42.4226 23.083 41.593C23.4249 41.0997 23.7388 40.6344 24.0079 40.2701C22.3262 38.7959 20.9866 37.3553 20.7063 34.2892H20.5325C20.1392 34.2846 19.7535 34.1805 19.4114 33.9865C18.8395 33.6269 18.3991 33.0921 18.1558 32.4618C17.859 31.7317 17.6884 30.9565 17.6514 30.1692C17.6514 29.9282 17.6514 29.4573 17.6514 29.0033C17.6514 28.6109 17.685 28.2353 17.713 28.0223C17.7205 27.9585 17.7375 27.8962 17.7635 27.8374C17.8386 27.5094 17.9974 27.2064 18.2243 26.9579C18.4512 26.7094 18.7385 26.5238 19.0583 26.4192C18.8621 22.6972 19.4731 16.8508 15.6951 15.7017C23.1839 6.39117 31.8666 1.32391 38.3913 9.60866C45.8857 10.001 49.0975 21.38 43.9406 26.9853C44.3421 26.9669 44.7416 27.0518 45.1009 27.232C45.3149 27.3448 45.5044 27.4991 45.6584 27.6857C45.8124 27.8724 45.9277 28.0878 45.9978 28.3194C46.1678 28.9298 46.1561 29.5766 45.9641 30.1804L44.9832 32.9831C44.8852 33.3789 44.668 33.735 44.361 34.0033C43.9777 34.2812 43.5008 34.3979 43.0325 34.3284L42.7635 34.2948C42.7018 37.3945 41.1827 38.8239 39.1984 40.6849L38.8173 41.0436L38.8061 41.0212ZM25.0112 41.1221C24.7534 41.4752 24.4787 41.8844 24.176 42.3273C23.5538 43.2409 22.8531 44.2611 22.1693 45.13C23.0549 50.6681 25.1794 54.5638 27.1076 58.7174L29.7085 49.7096C26.4574 44.3172 36.3005 44.0033 33.3352 49.7096L35.9193 58.6782C37.9204 54.4685 40.0056 50.2701 40.4765 45.5111C39.6861 44.5806 38.8453 43.3474 38.1166 42.2824L37.8419 41.8788C36.2459 43.3375 34.1741 44.1663 32.0123 44.2107C29.7702 44.2107 27.472 43.2409 25.3587 41.3631L25.028 41.0717L25.0112 41.1221ZM37.3879 16.5761C33.5706 20.4495 28.8061 19.2499 25.4428 20.7802C25.2466 20.8979 25.0448 21.0268 24.8374 21.1726C23.8476 21.8142 23.0909 22.7576 22.6794 23.8631C22.3082 25.0624 22.2771 26.3412 22.5897 27.5571C22.6344 27.6994 22.6344 27.852 22.5897 27.9943C22.5565 28.0869 22.5053 28.172 22.4391 28.2448C22.3729 28.3175 22.2929 28.3764 22.2038 28.4181C22.1147 28.4598 22.0182 28.4834 21.9199 28.4876C21.8217 28.4919 21.7235 28.4766 21.6312 28.4427L21.4126 28.3643V28.4764L21.0314 28.2241L20.9585 28.1961C20.0729 27.8878 19.4451 27.7421 19.204 28.297C19.204 28.4764 19.1704 28.751 19.1648 29.0369C19.1648 29.4461 19.1648 29.8721 19.1648 30.0851C19.1941 30.6966 19.3248 31.299 19.5516 31.8676C19.6695 32.1966 19.887 32.4807 20.1738 32.6804C20.3016 32.754 20.4466 32.7927 20.5942 32.7925C20.8014 32.7864 21.0069 32.7525 21.2052 32.6916C21.2768 32.6646 21.3528 32.6513 21.4294 32.6524C21.527 32.6494 21.6243 32.6658 21.7156 32.7006C21.8068 32.7354 21.8903 32.7879 21.9612 32.8551C22.0321 32.9223 22.0889 33.0029 22.1285 33.0922C22.168 33.1816 22.1895 33.2778 22.1917 33.3755C22.2758 36.7387 23.778 38.056 25.6054 39.6255C25.88 39.8665 26.1659 40.1131 26.3621 40.2925C28.2007 41.9237 30.1289 42.7645 32.0235 42.7645C33.9182 42.7645 35.7007 41.9573 37.4215 40.3037L38.1951 39.5694C40.1065 37.7701 41.5191 36.4416 41.25 33.2129C41.2334 33.0471 41.275 32.8806 41.3677 32.7421C41.4215 32.6597 41.4912 32.5888 41.5725 32.5334C41.6539 32.478 41.7454 32.4393 41.8418 32.4195C41.9382 32.3997 42.0376 32.3992 42.1342 32.418C42.2308 32.4368 42.3228 32.4746 42.4047 32.5291C42.5296 32.6122 42.663 32.6818 42.8027 32.7365C42.9071 32.776 43.0165 32.8006 43.1278 32.8093C43.2357 32.8234 43.345 32.8234 43.4529 32.8093C43.5092 32.6976 43.5561 32.5813 43.593 32.4618L44.5404 29.7656C44.6541 29.4454 44.6755 29.0996 44.602 28.7678C44.5751 28.6735 44.5129 28.5932 44.4283 28.5436C44.2822 28.4793 44.1208 28.458 43.963 28.482C43.4723 28.5378 43.0076 28.7323 42.6233 29.0425C42.4618 29.1604 42.2607 29.2107 42.0628 29.1827C41.8677 29.1484 41.694 29.0385 41.5796 28.8768C41.4652 28.7151 41.4192 28.5148 41.4518 28.3194C42.1581 24.2107 41.833 21.5313 40.9585 19.7039C40.2399 18.2753 39.0748 17.1201 37.6401 16.4136L37.4327 16.5705L37.3879 16.5761ZM29.5011 24.5918C30.2522 24.8721 30.4092 25.5055 29.9888 25.7129C29.5684 25.9203 28.8677 25.5784 28.3913 25.427C27.13 25.0235 25.6334 24.9786 24.5516 25.6569C24.2349 25.8619 23.9383 26.0965 23.6659 26.3575C23.7806 25.9639 23.971 25.5964 24.2265 25.2757C25.3195 23.9024 28.0661 23.8183 29.5292 24.5694L29.5011 24.5918ZM34.2489 24.5918C33.4922 24.8721 33.3352 25.5055 33.7556 25.7129C34.176 25.9203 34.8767 25.5784 35.3531 25.427C36.6144 25.0235 38.111 24.9786 39.1984 25.6569C39.5131 25.8647 39.8094 26.0991 40.0841 26.3575C39.9715 25.9631 39.7809 25.5952 39.5235 25.2757C38.4025 23.9024 35.6839 23.8183 34.2265 24.5694L34.2489 24.5918ZM25.5774 27.288C25.5373 27.3017 25.4948 27.3067 25.4526 27.3029C25.4105 27.2991 25.3696 27.2865 25.3326 27.2659C25.2956 27.2453 25.2634 27.2171 25.238 27.1833C25.2125 27.1495 25.1945 27.1107 25.185 27.0694C25.1575 26.9836 25.1622 26.8907 25.1983 26.8081C25.2344 26.7256 25.2995 26.659 25.3812 26.621C26.5879 26.1558 27.9244 26.1558 29.1312 26.621C29.2127 26.6579 29.278 26.7231 29.3151 26.8046C29.3522 26.886 29.3586 26.9781 29.333 27.0638C29.3248 27.1054 29.3079 27.1447 29.2833 27.1791C29.2587 27.2136 29.2271 27.2424 29.1904 27.2636C29.1538 27.2849 29.1131 27.298 29.0709 27.3022C29.0288 27.3064 28.9863 27.3016 28.9462 27.288C28.7439 27.2161 28.5381 27.1544 28.3296 27.1031C28.3475 27.1803 28.3569 27.2592 28.3576 27.3385C28.3576 27.5689 28.2661 27.7899 28.1032 27.9528C27.9402 28.1158 27.7192 28.2073 27.4888 28.2073C27.2584 28.2073 27.0374 28.1158 26.8744 27.9528C26.7115 27.7899 26.62 27.5689 26.62 27.3385C26.6211 27.2231 26.6439 27.1091 26.6872 27.0022C26.3034 27.0522 25.927 27.1482 25.5661 27.288H25.5774ZM35.667 27.0302C35.6307 27.129 35.6118 27.2333 35.611 27.3385C35.611 27.4526 35.6335 27.5656 35.6771 27.671C35.7208 27.7764 35.7848 27.8722 35.8655 27.9528C35.9461 28.0335 36.0419 28.0975 36.1473 28.1412C36.2527 28.1848 36.3657 28.2073 36.4798 28.2073C36.5939 28.2073 36.7069 28.1848 36.8123 28.1412C36.9177 28.0975 37.0135 28.0335 37.0942 27.9528C37.1749 27.8722 37.2389 27.7764 37.2825 27.671C37.3262 27.5656 37.3487 27.4526 37.3487 27.3385C37.3482 27.2045 37.3176 27.0722 37.259 26.9517C37.6397 27.0005 38.0151 27.0849 38.38 27.2039C38.421 27.2156 38.4639 27.2184 38.506 27.2123C38.5482 27.2062 38.5885 27.1913 38.6245 27.1686C38.6605 27.1459 38.6912 27.1158 38.7148 27.0803C38.7383 27.0449 38.7542 27.0049 38.7612 26.9629C38.7845 26.8766 38.7758 26.7848 38.7367 26.7044C38.6975 26.624 38.6305 26.5605 38.5482 26.5257C37.9425 26.3248 37.3085 26.2226 36.6704 26.223C36.0392 26.2233 35.4124 26.3274 34.815 26.5313C34.7321 26.5652 34.6649 26.6288 34.6265 26.7097C34.5881 26.7906 34.5814 26.8829 34.6076 26.9685C34.6154 27.01 34.6317 27.0494 34.6555 27.0842C34.6794 27.119 34.7102 27.1484 34.7461 27.1706C34.782 27.1927 34.8221 27.2072 34.8639 27.2129C34.9057 27.2186 34.9482 27.2156 34.9888 27.2039C35.202 27.1337 35.4191 27.0757 35.639 27.0302H35.667ZM30.9025 34.5358C30.8227 34.4673 30.7728 34.3704 30.7634 34.2658C30.754 34.1611 30.7858 34.0569 30.852 33.9753C30.922 33.8979 31.0185 33.8498 31.1224 33.8404C31.2263 33.8311 31.3299 33.8612 31.4126 33.9248C31.4877 34.0069 31.579 34.0724 31.6808 34.1173C31.7826 34.1621 31.8927 34.1853 32.0039 34.1853C32.1152 34.1853 32.2252 34.1621 32.327 34.1173C32.4288 34.0724 32.5202 34.0069 32.5953 33.9248C32.6354 33.8861 32.6831 33.8562 32.7354 33.8368C32.7877 33.8175 32.8434 33.8092 32.899 33.8124C32.9546 33.8157 33.009 33.8304 33.0587 33.8557C33.1083 33.881 33.1522 33.9164 33.1875 33.9595C33.2229 34.0026 33.2489 34.0525 33.264 34.1062C33.279 34.1598 33.2828 34.216 33.2751 34.2712C33.2674 34.3264 33.2483 34.3794 33.2191 34.4269C33.1899 34.4743 33.1512 34.5152 33.1054 34.547C32.797 34.8245 32.3991 34.9817 31.9843 34.9898C31.5798 34.9807 31.1927 34.8231 30.8969 34.547L30.9025 34.5358ZM29.6357 38.0335C29.5368 37.9808 29.4629 37.8909 29.4304 37.7837C29.3978 37.6764 29.4091 37.5607 29.4619 37.4618C29.5147 37.3629 29.6045 37.2891 29.7118 37.2565C29.819 37.2239 29.9348 37.2353 30.0336 37.288C30.6218 37.6182 31.282 37.7991 31.9563 37.8149C32.6237 37.8056 33.2777 37.6262 33.8565 37.2936C33.9528 37.2429 34.065 37.2315 34.1696 37.2618C34.2741 37.2921 34.3628 37.3618 34.417 37.4562C34.4664 37.5528 34.477 37.6645 34.4468 37.7687C34.4166 37.8728 34.3478 37.9615 34.2545 38.0167C33.5555 38.4273 32.7612 38.6476 31.9507 38.6557C31.1364 38.6392 30.3383 38.4257 29.6244 38.0335H29.6357ZM68.9854 53.8239C69.2766 54.292 69.4337 54.831 69.4395 55.3822C69.4395 58.2522 64.9888 60.1468 59.5067 60.1468C54.0247 60.1468 49.574 58.2522 49.574 55.3822C49.5786 54.8308 49.7358 54.2915 50.028 53.8239C51.2892 55.9371 55.0729 57.473 59.5067 57.473C63.9406 57.473 67.7242 55.9371 68.9854 53.8239ZM63.0942 43.0616L62.9765 44.3564L58.1054 43.9304C58.5067 44.4477 58.7898 45.0465 58.935 45.6849L57.7635 45.5784C57.6505 45.1783 57.4725 44.7996 57.2365 44.4573C56.9953 44.0599 56.6424 43.7421 56.222 43.5436L56.3173 42.4954L63.0942 43.056V43.0616ZM59.5067 41.038C63.991 41.038 67.6682 42.473 67.6682 44.2387C67.6682 46.0044 64.0135 47.4674 59.5067 47.4674C55 47.4674 51.3453 46.0044 51.3453 44.2387C51.3453 42.473 55 41.038 59.5067 41.038ZM59.5067 39.973C64.9888 39.973 69.4395 42.3105 69.4395 45.1804C69.4395 48.0504 64.9888 50.3878 59.5067 50.3878C54.0247 50.3878 49.574 48.056 49.574 45.1804C49.574 42.3048 54.0247 39.973 59.5067 39.973ZM69.0359 48.6557C69.3042 49.1074 69.4492 49.6215 69.4563 50.1468C69.4563 53.0223 65.0056 55.3598 59.5235 55.3598C54.0415 55.3598 49.5908 53.0223 49.5908 50.1468C49.5919 49.6207 49.7373 49.1049 50.0112 48.6557C51.2332 50.797 55.0561 52.3665 59.5404 52.3665C64.0247 52.3665 67.8307 50.797 69.0695 48.6557H69.0359ZM68.991 59.0761C69.2937 59.575 69.4563 59.6647 69.4563 60.1972C69.4563 63.0672 65.0056 65.4046 59.5235 65.4046C54.0415 65.4046 49.5908 63.0672 49.5908 60.1972C49.5908 59.6367 49.7534 59.5526 50.0561 59.0761C51.3341 61.1782 55.1009 62.2656 59.5235 62.2656C63.9462 62.2656 67.7074 61.1782 68.991 59.0761Z" fill="#806300"/>
</g>
<defs>
<clipPath id="clip0_573_590">
<rect width="68.8789" height="60" fill="white" transform="translate(0.560547 5.42578)"/>
</clipPath>
</defs>
</svg>
