<svg width="70" height="71" viewBox="0 0 70 71" fill="none" xmlns="http://www.w3.org/2000/svg">
<g clip-path="url(#clip0_573_560)">
<path d="M56.9706 11.1916C60.1411 11.1916 63.0175 12.4827 65.0985 14.5637C67.1794 16.6447 68.4651 19.521 68.4651 22.6915C68.4651 25.8675 67.1794 28.7384 65.0985 30.8193C63.0175 32.9003 60.1411 34.186 56.9706 34.186C53.7947 34.186 50.9238 32.9003 48.8428 30.8193C46.7618 28.7384 45.4762 25.862 45.4762 22.6915C45.4762 19.521 46.7618 16.6447 48.8428 14.5637C50.9238 12.4827 53.8001 11.1916 56.9706 11.1916ZM19.1751 21.7382C19.3712 21.7491 19.5673 21.7382 19.7689 21.6946L19.6926 21.1063C19.7035 21.0572 19.7035 21.0028 19.7035 20.9483C19.6981 20.8393 19.6763 20.7304 19.6327 20.6378L19.1587 16.868C19.4693 15.675 19.9486 14.7434 20.5806 14.0625C21.2397 13.3489 22.0732 12.9076 23.0647 12.7169C24.3776 12.6243 24.7698 13.5831 26.0827 14.4166C30.0703 16.9661 33.4424 17.8268 38.367 17.8867L37.8059 20.7195C37.6044 20.8884 37.4845 21.1444 37.5117 21.4277C37.5226 21.5421 37.5553 21.6456 37.6044 21.7382L37.5662 21.9288C37.6316 21.9343 37.6915 21.9343 37.7569 21.9397C37.9203 22.0977 38.1546 22.1903 38.3997 22.1685C39.2005 22.0977 39.6799 22.1522 39.7943 22.3864C39.9686 22.7405 39.8052 23.4923 39.2604 24.7289L36.5748 29.1578C35.5778 30.803 34.5646 32.4482 33.2898 33.6412C32.075 34.7798 30.5769 35.537 28.5341 35.5315C26.6492 35.5261 25.2219 34.7961 24.0453 33.7229C22.8086 32.5953 21.8117 31.0481 20.853 29.5283L18.4614 25.7258L18.4506 25.704C17.726 24.6309 17.3556 23.7048 17.3338 23.002C17.3283 22.7787 17.361 22.5826 17.4319 22.4246C17.4972 22.2884 17.5953 22.174 17.726 22.0868C17.9875 21.9125 18.3797 21.809 18.9027 21.7927C19.0062 21.7872 19.0934 21.7709 19.1751 21.7382ZM20.7985 39.6663L25.0803 52.2557L27.2321 44.787L26.1753 43.6321C25.7013 42.9403 25.5978 42.3301 25.8593 41.8072C26.4313 40.6741 27.6134 40.8865 28.7193 40.8865C29.8796 40.8865 31.3069 40.6686 31.6665 42.1177C31.7863 42.6025 31.6338 43.1092 31.296 43.6321L30.2392 44.787L32.391 52.2557L36.2697 39.6663C39.0643 42.1831 47.3447 42.6897 50.4226 44.4057C51.3977 44.9505 52.2748 45.6423 52.983 46.5738C54.0561 47.9902 54.7153 49.8424 54.8951 52.1958L55.5379 62.3774C55.3799 64.0389 54.4375 64.9977 52.5798 65.1393H28.7411H4.48833C2.63069 64.9977 1.68825 64.0389 1.53027 62.3774L2.17309 52.1958C2.35286 49.8479 3.01202 47.9957 4.0852 46.5738C4.79339 45.6368 5.67046 44.9505 6.64558 44.4057C9.72893 42.6897 18.0038 42.1831 20.7985 39.6663ZM40.0285 20.6432L40.1756 14.58C39.9959 12.0578 39.1624 10.1511 37.8332 8.71839C34.57 5.18833 28.4796 4.28403 23.8873 5.94555C23.1137 6.22338 22.3783 6.57747 21.7137 7.00784C19.8179 8.21721 18.2817 9.97678 17.6715 12.1613C17.5245 12.6788 17.4264 13.1963 17.3774 13.7084C17.2793 15.833 17.3338 18.3607 17.4809 20.3981C17.2412 20.4852 17.0233 20.5942 16.8326 20.7249C16.4404 20.9864 16.1517 21.3296 15.961 21.7382C15.7812 22.125 15.6995 22.5662 15.7159 23.0456C15.7431 24.048 16.2061 25.2682 17.0941 26.5974L19.4856 30.3999C20.4989 32.0069 21.5611 33.6521 22.9612 34.9268C24.4157 36.2615 26.1971 37.1604 28.5559 37.1658C31.0836 37.1713 32.9303 36.2397 34.4284 34.8342C35.8666 33.4887 36.9397 31.7454 37.9966 30.0077L40.7258 25.5188C40.7422 25.4861 40.7585 25.4589 40.7749 25.4262C41.5375 23.6939 41.6955 22.4791 41.2869 21.6619C41.02 21.1444 40.6005 20.8121 40.0285 20.6432ZM58.2835 24.7616V24.1133C58.2835 24.0425 58.3434 23.9771 58.4142 23.9826L63.3171 24.3149L58.4142 24.8978C58.3434 24.9032 58.2835 24.8324 58.2835 24.7616ZM56.3441 23.0565C57.1068 23.0565 57.7224 23.6775 57.7224 24.4402C57.7224 25.2029 57.1068 25.8184 56.3441 25.8184C55.5815 25.8184 54.9659 25.1974 54.9659 24.4402C54.9659 23.6721 55.5815 23.0565 56.3441 23.0565ZM55.7612 22.1958H56.927C56.9979 22.1958 57.0578 22.1359 57.0578 22.065L56.3823 17.1622L55.6305 22.065C55.6305 22.1359 55.6904 22.1958 55.7612 22.1958ZM63.5132 16.1435C61.8408 14.4711 59.531 13.436 56.9706 13.436C54.4157 13.436 52.1005 14.4711 50.428 16.1435C48.7556 17.8159 47.7151 20.1311 47.7151 22.6915C47.7151 25.2464 48.7502 27.5562 50.428 29.2341C52.1005 30.9065 54.4157 31.947 56.9706 31.947C59.5255 31.947 61.8408 30.912 63.5132 29.2395C65.1856 27.5671 66.2261 25.2519 66.2261 22.697C66.2261 20.1366 65.1911 17.8213 63.5132 16.1435Z" fill="#806300"/>
</g>
<defs>
<clipPath id="clip0_573_560">
<rect width="66.9403" height="60" fill="white" transform="translate(1.53027 5.14062)"/>
</clipPath>
</defs>
</svg>
