<svg width="70" height="71" viewBox="0 0 70 71" fill="none" xmlns="http://www.w3.org/2000/svg">
<g clip-path="url(#clip0_573_547)">
<path fill-rule="evenodd" clip-rule="evenodd" d="M34.9054 5.14062C45.0851 11.5933 54.2814 14.646 62.174 13.9243C63.5524 41.8042 53.2565 58.269 35.0109 65.1406C17.3913 58.709 6.96939 42.9526 7.74234 13.5015C17.0075 13.9863 26.0973 11.9834 34.9054 5.14062ZM24.1979 37.7456C23.6217 37.2524 23.5544 36.3853 24.047 35.8086C24.5407 35.2319 25.4079 35.165 25.984 35.6577L31.5963 40.4795L43.8913 26.9619C44.4025 26.4004 45.2721 26.3594 45.8341 26.8701C46.3952 27.3809 46.4362 28.2505 45.9254 28.8125L32.7321 43.3184L32.7311 43.3174C32.2331 43.8647 31.3878 43.9209 30.8219 43.4365L24.1979 37.7456Z" fill="#806300"/>
</g>
<defs>
<clipPath id="clip0_573_547">
<rect width="54.5952" height="60" fill="white" transform="translate(7.70215 5.14062)"/>
</clipPath>
</defs>
</svg>
